<svg xmlns="http://www.w3.org/2000/svg" viewBox="0 0 165.42 188.35"><g id="Capa_2" data-name="Capa 2"><g id="Capa_1-2" data-name="Capa 1"><path d="M160,84v-.15a4,4,0,0,0-4-3.9h-36.4a4,4,0,0,0-4,4V84a3.21,3.21,0,0,1-.07.61,36,36,0,0,1-23.71,29.28c-2.88-2.51-5.68-4.9-8.16-7-17.48-14.89-29-24.73-29-39.1,0-9.93,5.15-18,12.85-21.5.34-.13.67-.26,1-.37.6-.2,1.22-.38,1.84-.55.36-.1.73-.2,1.09-.28.62-.15,1.24-.3,1.87-.42.26,0,.53-.08.79-.12h0c.68-.06,1.37-.1,2.07-.1a19.09,19.09,0,0,1,12,4.14,27.13,27.13,0,0,1,7,8.43l3.35-5.88.8-1.4,1.39-2.43h0L119,15.17l.16-.29a4,4,0,0,0,.54-2,3.94,3.94,0,0,0-1.58-3.15c-.33-.18-.66-.38-1-.56a80,80,0,1,0-5,143.84l-1.87,35.34,27.62-16.87,27.59,16.87Zm-43-2.86h0v.06h0Zm-.47.58h0l-.11.19h0Zm-.37.66h0a1.46,1.46,0,0,1-.12.39h0a.81.81,0,0,1,.08-.42Zm-.23.74h0a5.16,5.16,0,0,0-.09.79,4.46,4.46,0,0,1,0-.82Z"/></g></g></svg>